<?xml version="1.0" encoding="UTF-8" standalone="no"?>
<svg
   width="64"
   height="64"
   viewBox="0 0 210 297"
   version="1.1"
   id="svg1"
   xml:space="preserve"
   xmlns="http://www.w3.org/2000/svg"
   xmlns:svg="http://www.w3.org/2000/svg">
   <defs id="defs1" />
   <g id="layer1">
     <path
       style="fill:#ffffff"
       d="M 96.904296,236.47494 C 88.510366,235.70715 81.315063,234.22502 73.940463,231.7447 53.952434,225.02209 36.954012,212.5627 24.588349,195.57092 6.4444158,170.63917 1.2546677,136.75828 11.142634,107.79156 c 2.033348,-5.95667 3.320337,-9.019565 5.847221,-13.915745 5.315465,-10.29944 11.205173,-18.139197 19.874168,-26.454395 13.074,-12.540426 30.19457,-21.577874 47.563285,-25.107266 14.059421,-2.856931 26.375832,-2.819662 41.064042,0.124259 14.98702,3.003811 31.31121,11.258583 43.52985,22.012054 19.66883,17.310288 31.24418,40.245543 33.46606,66.309273 0.79326,9.30532 -0.29957,22.14463 -2.69548,31.66828 -4.42323,17.58223 -13.68875,33.66835 -26.59556,46.17331 -11.03151,10.68805 -22.65155,17.87136 -37.07291,22.91784 -10.08501,3.52906 -18.266,4.86795 -30.48776,4.98961 -4.14735,0.0413 -8.07641,0.026 -8.731254,-0.0338 z"
       id="path1" />
   </g>
</svg>
